<svg width="20" height="16" viewBox="0 0 20 16" fill="none" xmlns="http://www.w3.org/2000/svg">
<path fill-rule="evenodd" clip-rule="evenodd" d="M9.99986 14.9445C13.8352 14.9445 16.9443 11.8354 16.9443 8.00008C16.9443 4.16477 13.8352 1.05563 9.99986 1.05563C6.16455 1.05563 3.05542 4.16477 3.05542 8.00008C3.05542 11.8354 6.16455 14.9445 9.99986 14.9445ZM14.0613 7.41082L10.5891 3.9386C10.2637 3.61316 9.73604 3.61316 9.41061 3.9386C9.08517 4.26404 9.08517 4.79167 9.41061 5.11711L11.4602 7.16674H6.52764C6.0674 7.16674 5.69431 7.53984 5.69431 8.00008C5.69431 8.46031 6.0674 8.83341 6.52764 8.83341H11.4602L9.41061 10.883C9.08517 11.2085 9.08517 11.7361 9.41061 12.0616C9.73604 12.387 10.2637 12.387 10.5891 12.0616L14.0613 8.58933C14.2176 8.43305 14.3054 8.22109 14.3054 8.00008C14.3054 7.77906 14.2176 7.5671 14.0613 7.41082Z" fill="#41B870"/>
</svg>
