<svg width="168" height="130" viewBox="0 0 168 130" fill="none" xmlns="http://www.w3.org/2000/svg">
<path d="M111.852 129.773H14.6289C6.54967 129.773 0 123.224 0 115.144V45.6212C0 37.542 6.54926 30.9923 14.6289 30.9923H111.852C119.931 30.9923 126.481 37.542 126.481 45.6212V115.144C126.481 123.224 119.931 129.773 111.852 129.773Z" fill="#D9FFE8"/>
<path d="M98.254 46.9469L109.957 51.6973C110.866 52.0664 111.903 51.6286 112.272 50.719L121.782 27.2896C122.151 26.38 121.713 25.3438 120.804 24.9747L109.101 20.2243C108.191 19.8552 107.155 20.293 106.786 21.2026L97.2757 44.632C96.9066 45.5416 97.3444 46.5778 98.254 46.9469Z" fill="#FFCA36"/>
<path d="M109.108 21.8512L100.047 44.6317" stroke="black" stroke-width="0.2938" stroke-miterlimit="10" stroke-linecap="round" stroke-linejoin="round"/>
<path d="M107.905 23.0197C107.905 23.3905 107.604 23.6909 107.233 23.6909C106.863 23.6909 106.562 23.3905 106.562 23.0197C106.562 22.6489 106.863 22.3485 107.233 22.3485C107.604 22.3481 107.905 22.6489 107.905 23.0197Z" fill="black"/>
<path d="M106.115 26.1619C106.485 26.1619 106.786 25.8614 106.786 25.4907C106.786 25.12 106.485 24.8195 106.115 24.8195C105.744 24.8195 105.443 25.12 105.443 25.4907C105.443 25.8614 105.744 26.1619 106.115 26.1619Z" fill="black"/>
<path d="M105.223 25.0534L97.2759 44.6321" stroke="black" stroke-width="0.2938" stroke-miterlimit="10" stroke-linecap="round" stroke-linejoin="round"/>
<path d="M121.782 27.2896C122.151 26.38 121.713 25.3438 120.804 24.9747L109.101 20.2243C108.191 19.8552 107.155 20.293 106.786 21.2026" stroke="black" stroke-width="0.2938" stroke-miterlimit="10" stroke-linecap="round" stroke-linejoin="round"/>
<path d="M92.5991 38.5734H96.3004" stroke="black" stroke-width="0.2938" stroke-miterlimit="10" stroke-linecap="round" stroke-linejoin="round"/>
<path d="M93.0549 32.4103L97.9911 34.9131" stroke="black" stroke-width="0.2938" stroke-miterlimit="10" stroke-linecap="round" stroke-linejoin="round"/>
<path d="M97.9917 29.9807L99.832 32.9909" stroke="black" stroke-width="0.2938" stroke-miterlimit="10" stroke-linecap="round" stroke-linejoin="round"/>
<path d="M101.016 55.8509C101.016 55.8509 97.0617 48.5365 98.1956 39.6482C98.7265 35.4872 102.88 38.0211 103.104 43.9641C103.116 44.2852 103.332 44.86 103.443 44.5422C103.443 44.5422 104.713 39.3689 105.703 33.3063C105.932 31.9043 106.286 30.2022 108.158 30.2349C111.912 30.3007 108.082 38.6637 108.118 39.4326C108.118 39.4326 108.73 29.73 112.241 29.9853C115.488 30.2216 111.916 38.0244 111.537 39.4811C111.875 30.0259 116.127 31.9899 116.127 31.9899C117.819 32.6686 116.686 36.1311 116.258 37.1797C116.431 37.049 116.865 34.2643 118.969 34.9302C121.031 35.5824 120.203 39.4748 118.982 43.2374C118.395 45.0462 117.538 46.7971 116.421 48.4185C113.477 52.6934 107.195 60.0368 101.016 55.8509Z" fill="#94332A"/>
<path d="M107.073 43.444C107.073 43.444 109.153 37.2552 109.784 31.9528" stroke="black" stroke-width="0.2938" stroke-miterlimit="10" stroke-linecap="round" stroke-linejoin="round"/>
<path d="M109.492 44.7371C109.492 44.7371 113.186 37.7843 113.66 32.4099" stroke="black" stroke-width="0.2938" stroke-miterlimit="10" stroke-linecap="round" stroke-linejoin="round"/>
<path d="M112.39 46.6631C112.39 46.6631 115.431 40.7731 116.756 35.9905" stroke="black" stroke-width="0.2938" stroke-miterlimit="10" stroke-linecap="round" stroke-linejoin="round"/>
<path d="M80.6893 55.0298C61.3155 54.124 55.4325 53.6754 41.4231 58.5643C36.5159 60.2768 35.224 60.9174 32.2854 63.0639C24.4309 68.8017 8.7509 105.959 6.48022 112.488C4.20913 119.017 1.37068 129.803 20.6733 129.803C39.976 129.803 69.7932 129.803 69.7932 129.803H91.3317L92.8803 114.681C92.8803 114.681 97.7896 125.698 113.35 110.532C124.12 100.034 116.068 63.0027 111.578 54.0238C111.578 54.0238 104.386 55.1283 99.1064 51.283C99.1064 51.283 96.2687 56.3748 95.2242 65.3098C95.2242 65.3098 95.1857 65.0217 95.0736 64.5525C94.2915 61.2844 91.83 58.8644 88.8335 57.3431C85.1355 55.4664 80.6893 55.0298 80.6893 55.0298Z" fill="#EF65C1"/>
<mask id="mask0_433_10605" style="mask-type:luminance" maskUnits="userSpaceOnUse" x="4" y="51" width="115" height="79">
<path d="M80.6878 55.0293C61.314 54.1234 55.431 53.6748 41.4217 58.5638C36.5145 60.2762 35.2225 60.9168 32.2839 63.0634C24.4294 68.8011 8.74944 105.958 6.47876 112.487C4.20766 119.016 1.36921 129.802 20.6719 129.802C39.9745 129.802 69.7917 129.802 69.7917 129.802H91.3303L92.8788 114.68C92.8788 114.68 97.7881 125.697 113.348 110.531C124.118 100.034 116.067 63.0021 111.577 54.0233C111.577 54.0233 104.385 55.1278 99.1049 51.2825C99.1049 51.2825 96.2673 56.3742 95.2228 65.3092C95.2228 65.3092 95.1843 65.0212 95.0721 64.5519C94.29 61.2839 91.8285 58.8638 88.832 57.3426C85.134 55.4659 80.6878 55.0293 80.6878 55.0293Z" fill="white"/>
</mask>
<g mask="url(#mask0_433_10605)">
<path d="M-21.8623 118.165C-21.8623 118.165 -4.50134 102.756 2.97448 124.29C10.4499 145.824 37.6136 128.318 37.6136 128.318C37.6136 128.318 57.8971 111.14 67.4962 135.687C77.0958 160.235 101.625 143.881 101.625 143.881C101.625 143.881 122.36 128.644 134.065 152.105" stroke="#7B11CE" stroke-width="0.195867" stroke-miterlimit="10" stroke-linecap="round" stroke-linejoin="round"/>
<path d="M-19.1348 107.105C-19.1348 107.105 -1.77339 91.6963 5.70202 113.23C13.1774 134.764 40.3412 117.258 40.3412 117.258C40.3412 117.258 60.6246 100.08 70.2242 124.628C79.8238 149.175 104.353 132.821 104.353 132.821C104.353 132.821 125.088 117.584 136.793 141.045" stroke="#7B11CE" stroke-width="0.195867" stroke-miterlimit="10" stroke-linecap="round" stroke-linejoin="round"/>
<path d="M-16.8496 97.8386C-16.8496 97.8386 0.511352 82.4296 7.98718 103.964C15.4626 125.498 42.6267 107.992 42.6267 107.992C42.6267 107.992 62.9102 90.8142 72.5098 115.362C82.1094 139.909 106.638 123.555 106.638 123.555C106.638 123.555 127.374 108.318 139.079 131.779" stroke="#7B11CE" stroke-width="0.195867" stroke-miterlimit="10" stroke-linecap="round" stroke-linejoin="round"/>
<path d="M-14.1221 86.7793C-16.8393 89.1907 5.6345 78.2706 10.7147 92.9044C18.1901 114.438 45.3538 96.9326 45.3538 96.9326C45.3538 96.9326 65.6372 79.755 75.2368 104.303C84.8364 128.85 109.365 112.496 109.365 112.496C109.365 112.496 130.101 97.2587 141.806 120.72" stroke="#7B11CE" stroke-width="0.195867" stroke-miterlimit="10" stroke-linecap="round" stroke-linejoin="round"/>
<path d="M-11.837 77.5136C-14.5542 79.925 7.91965 69.0048 12.9998 83.6387C20.4752 105.173 47.6394 87.6669 47.6394 87.6669C47.6394 87.6669 67.9228 70.4892 77.5224 95.0363C87.122 119.584 111.651 103.23 111.651 103.23C111.651 103.23 132.387 87.9926 144.091 111.453" stroke="#7B11CE" stroke-width="0.195867" stroke-miterlimit="10" stroke-linecap="round" stroke-linejoin="round"/>
<path d="M-9.10889 66.4541C-9.10889 66.4541 8.25207 51.0451 15.7279 72.5791C23.2033 94.1132 50.3671 76.6074 50.3671 76.6074C50.3671 76.6074 70.6505 59.4297 80.2501 83.9772C89.8497 108.525 114.379 92.1707 114.379 92.1707C114.379 92.1707 135.114 76.9335 146.819 100.394" stroke="#7B11CE" stroke-width="0.195867" stroke-miterlimit="10" stroke-linecap="round" stroke-linejoin="round"/>
<path d="M-6.8252 57.1881C-6.8252 57.1881 10.5358 41.7796 18.0116 63.3132C25.4874 84.8468 52.6508 67.3414 52.6508 67.3414C52.6508 67.3414 72.9342 50.1638 82.5338 74.7109C92.1334 99.2584 116.662 82.9043 116.662 82.9043C116.662 82.9043 137.398 67.6671 149.103 91.1279" stroke="#7B11CE" stroke-width="0.195867" stroke-miterlimit="10" stroke-linecap="round" stroke-linejoin="round"/>
<path d="M0.465576 43.622C0.465576 43.622 13.2641 30.7188 20.7399 52.2528C28.2157 73.7869 55.3795 56.2811 55.3795 56.2811C55.3795 56.2811 75.6629 39.1034 85.2621 63.6505C94.8617 88.198 119.391 71.8439 119.391 71.8439C119.391 71.8439 140.126 56.6067 151.831 80.0675" stroke="#7B11CE" stroke-width="0.195867" stroke-miterlimit="10" stroke-linecap="round" stroke-linejoin="round"/>
<path d="M2.75073 34.3569C2.75073 34.3569 20.1117 18.9484 27.5875 40.482C34.6698 60.8833 45.8908 54.8298 57.6642 47.0159C57.6642 47.0159 77.9476 29.8383 87.5468 54.3854C97.1464 78.9329 121.675 62.5792 121.675 62.5792C121.675 62.5792 142.411 47.342 154.116 70.8028" stroke="#7B11CE" stroke-width="0.195867" stroke-miterlimit="10" stroke-linecap="round" stroke-linejoin="round"/>
<path d="M5.03589 25.0918C5.03589 25.0918 22.3968 9.68328 29.8727 31.2169C37.3481 52.7509 59.9494 37.7508 59.9494 37.7508C59.9494 37.7508 80.2328 20.5732 89.8324 45.1203C99.432 69.6678 123.961 53.3137 123.961 53.3137C123.961 53.3137 144.696 38.0765 156.401 61.5373" stroke="#7B11CE" stroke-width="0.195867" stroke-miterlimit="10" stroke-linecap="round" stroke-linejoin="round"/>
</g>
<path d="M44.8457 77.779C44.8457 77.779 41.4916 98.9484 37.8367 108.054" stroke="black" stroke-width="0.2938" stroke-miterlimit="10" stroke-linecap="round" stroke-linejoin="round"/>
<path d="M96.5914 57.6286C96.5914 57.6286 90.2876 87.5837 92.8794 114.682" stroke="black" stroke-width="0.2938" stroke-miterlimit="10" stroke-linecap="round" stroke-linejoin="round"/>
<path d="M40.9705 97.4066L45.0239 109.104L37.7952 108.156C37.7952 108.156 40.9634 99.7642 40.9705 97.4066Z" fill="black"/>
<path d="M27.8296 106.664L60.6512 111.321C61.6651 111.465 62.362 112.415 62.1944 113.426L60.0214 126.528" stroke="black" stroke-width="0.2938" stroke-miterlimit="10" stroke-linecap="round" stroke-linejoin="round"/>
<path d="M51.8218 55.5927C51.8218 55.5927 58.2845 64.8137 69.8734 62.7685C81.4623 60.7234 78.1401 54.9103 78.1401 54.9103" stroke="black" stroke-width="0.2938" stroke-miterlimit="10" stroke-linecap="round" stroke-linejoin="round"/>
<path d="M87.4066 41.8792C86.514 47.7705 81.2687 52.191 73.881 49.6108L73.1601 49.3476L74.3892 55.1379C74.3892 55.1379 72.4811 60.7593 66.1937 59.8274C57.3299 58.5135 55.7636 54.628 55.7636 54.628L56.7564 38.5955C56.7564 38.5955 52.6661 39.6772 53.0269 33.776C53.4097 27.5119 57.6887 29.0286 57.6887 29.0286L57.7463 28.6392C58.2971 20.2711 64.1784 15.9752 71.1365 15.7202L72.7434 15.6441C72.7434 15.6441 91.7485 13.2207 87.4066 41.8792Z" fill="#94332A"/>
<path d="M57.4727 32.5415C57.4727 32.5415 58.1956 33.3456 57.4081 33.6742C55.73 34.3752 57.8873 34.9703 57.3307 35.5538" stroke="black" stroke-width="0.2938" stroke-miterlimit="10" stroke-linecap="round" stroke-linejoin="round"/>
<path d="M57.8068 30.7375C57.8068 30.7375 55.049 29.0706 55.1972 33.2817" stroke="black" stroke-width="0.2938" stroke-miterlimit="10" stroke-linecap="round" stroke-linejoin="round"/>
<path d="M75.9484 26.7016C75.5632 26.6751 75.0136 26.6325 74.5311 26.6325C74.032 26.6242 73.5259 26.6333 73.0165 26.6747C72.507 26.7157 71.9947 26.7798 71.4679 26.8477C70.9353 26.9031 70.4035 26.9946 69.8043 27.019L69.7907 27.0198C69.645 27.0256 69.5225 26.9126 69.5163 26.767C69.5138 26.697 69.5386 26.6316 69.5817 26.5824C69.9856 26.1206 70.4722 25.7518 71.0011 25.4634C71.5263 25.158 72.1044 24.9709 72.6899 24.8062C73.2784 24.6477 73.8872 24.5617 74.5025 24.5331C75.1344 24.5195 75.7047 24.5385 76.414 24.7318C76.9516 24.8778 77.2685 25.4324 77.1225 25.9695C76.9942 26.4417 76.551 26.7438 76.0813 26.7111L75.9484 26.7016Z" fill="black"/>
<mask id="mask1_433_10605" style="mask-type:luminance" maskUnits="userSpaceOnUse" x="81" y="24" width="7" height="6">
<path d="M86.5496 24.5258C86.5496 24.5258 87.381 26.4224 87.8002 29.7509C87.8002 29.7509 82.4912 29.9408 81.9003 27.9023C81.9007 27.9019 81.4608 24.8946 86.5496 24.5258Z" fill="white"/>
</mask>
<g mask="url(#mask1_433_10605)">
<path d="M83.8774 26.2919C84.3897 26.1049 84.7915 26.061 85.2538 26.0428C85.7024 26.0354 86.1514 26.0879 86.5871 26.198C87.0213 26.3081 87.4496 26.4599 87.8253 26.7132C88.204 26.9524 88.5342 27.2793 88.7597 27.6832C88.8355 27.8186 88.7867 27.9895 88.6517 28.0652C88.6137 28.0867 88.5723 28.0979 88.5313 28.1004L88.504 28.1016C88.06 28.1252 87.7037 28.0908 87.3469 28.0933C86.9968 28.0875 86.6687 28.0652 86.3384 28.0784C86.0103 28.0855 85.6858 28.1041 85.3639 28.1401C85.0564 28.1629 84.6897 28.2224 84.4563 28.232L84.2623 28.2398C83.7077 28.2622 83.2401 27.831 83.2182 27.2764C83.1995 26.8291 83.4785 26.438 83.8774 26.2919Z" fill="black"/>
</g>
<mask id="mask2_433_10605" style="mask-type:luminance" maskUnits="userSpaceOnUse" x="81" y="28" width="8" height="10">
<path d="M87.6684 28.832C87.6684 28.832 88.2821 31.9361 87.9486 36.763C87.9486 36.763 85.2074 37.8816 83.2826 36.3207C82.3933 35.5989 81.9518 34.1294 81.4246 31.8174C81.4241 31.8178 84.0259 29.18 87.6684 28.832Z" fill="white"/>
</mask>
<g mask="url(#mask2_433_10605)">
<path d="M81.2852 33.1556C81.2852 33.1556 86.2966 27.1597 91.455 33.0203C91.455 33.0203 90.0116 36.0359 86.6447 36.4534C83.2782 36.8706 81.2852 33.1556 81.2852 33.1556Z" fill="white"/>
<mask id="mask3_433_10605" style="mask-type:luminance" maskUnits="userSpaceOnUse" x="81" y="30" width="11" height="7">
<path d="M81.2859 33.1563C81.2859 33.1563 86.2974 27.1603 91.4557 33.021C91.4557 33.021 90.0123 36.0365 86.6454 36.4541C83.2789 36.8712 81.2859 33.1563 81.2859 33.1563Z" fill="white"/>
</mask>
<g mask="url(#mask3_433_10605)">
<path d="M90.4087 33.6889C90.554 35.4725 89.365 37.0252 87.7532 37.1568C86.1409 37.2884 84.7161 35.9493 84.5704 34.1656C84.4248 32.382 85.6137 30.8289 87.226 30.6978C88.8382 30.5657 90.2635 31.9053 90.4087 33.6889Z" fill="black"/>
</g>
<path d="M91.4457 32.9141C91.4457 32.9141 87.026 26.4223 81.2759 33.0498" stroke="black" stroke-width="1.1752" stroke-miterlimit="10" stroke-linecap="round" stroke-linejoin="round"/>
</g>
<path d="M68.0754 33.8805C68.0754 33.8805 73.0869 27.8845 78.2453 33.7447C78.2453 33.7447 76.8019 36.7599 73.4349 37.1779C70.0684 37.595 68.0754 33.8805 68.0754 33.8805Z" fill="white"/>
<mask id="mask4_433_10605" style="mask-type:luminance" maskUnits="userSpaceOnUse" x="68" y="31" width="11" height="7">
<path d="M68.0754 33.8778C68.0754 33.8778 73.0869 27.8818 78.2453 33.7421C78.2453 33.7421 76.8019 36.7572 73.4349 37.1752C70.0684 37.5923 68.0754 33.8778 68.0754 33.8778Z" fill="white"/>
</mask>
<g mask="url(#mask4_433_10605)">
<path d="M78.3008 33.5662C78.917 35.8067 77.1184 37.9239 74.8076 37.6772C73.5169 37.5394 72.4082 36.5975 72.0644 35.3461C71.4482 33.1061 73.2467 30.9885 75.5575 31.2351C76.8482 31.3729 77.9569 32.3148 78.3008 33.5662Z" fill="black"/>
</g>
<path d="M78.0495 33.7723C77.3456 33.099 76.5585 32.4923 75.7325 32.0557C74.9028 31.6212 74.0209 31.3622 73.1428 31.3919C72.2655 31.4102 71.4001 31.7123 70.589 32.1807C69.7721 32.6446 69.0115 33.2654 68.2451 33.9217C68.1479 34.0065 68.0001 33.9962 67.9157 33.8989C67.8487 33.8219 67.8425 33.7119 67.8905 33.6279C68.4152 32.7294 69.11 31.9092 69.9919 31.2674C70.8609 30.6235 71.9613 30.1662 73.1171 30.1587C74.2696 30.1368 75.3878 30.539 76.2775 31.1598C77.1755 31.783 77.906 32.5689 78.4253 33.5062C78.4874 33.6179 78.4468 33.759 78.3351 33.8207C78.2445 33.8712 78.1344 33.8538 78.0632 33.7859L78.0495 33.7723Z" fill="black"/>
<path d="M73.1599 49.348L68.9773 48.1496L74.0384 53.4859L73.1599 49.348Z" fill="black"/>
<path d="M84.505 41.2845C84.505 41.2845 81.4352 41.601 76.8454 41.0908C76.8454 41.0908 76.4784 45.8747 80.7114 46.0269C83.8896 46.1407 84.505 41.2845 84.505 41.2845Z" fill="black"/>
<path d="M77.1479 43.3646C77.1479 43.3646 79.6462 43.2665 81.5089 44.7472C82.0551 45.1813 81.7878 45.9936 81.0793 46.0557C80.574 46.1 79.902 46.0334 79.0392 45.7131C79.0392 45.7131 77.5742 45.046 77.1479 43.3646Z" fill="#FF5E43"/>
<path d="M84.505 41.2845C84.505 41.2845 81.4948 43.9909 76.8455 41.0908L84.505 41.2845Z" fill="white"/>
<path d="M56.7561 38.5948L58.5496 38.0958" stroke="black" stroke-width="0.2938" stroke-miterlimit="10" stroke-linecap="round" stroke-linejoin="round"/>
<path d="M81.4517 31.729C82.0178 34.899 83.3309 35.8599 83.3309 35.8599C83.3309 35.8599 84.0853 36.4723 83.7782 37.2388C83.4712 38.0052 82.9965 37.6335 82.3484 38.097" stroke="black" stroke-width="0.2938" stroke-miterlimit="10" stroke-linecap="round" stroke-linejoin="round"/>
<path d="M80.6717 37.6118C80.6717 37.6118 80.555 37.5687 80.3502 37.6039C80.1449 37.6387 79.9993 37.8447 79.9993 37.8447" stroke="black" stroke-width="0.2938" stroke-miterlimit="10" stroke-linecap="round" stroke-linejoin="round"/>
<path d="M79.1934 36.0441C79.1934 36.0441 78.1171 36.7493 79.0047 38.0214" stroke="black" stroke-width="0.2938" stroke-miterlimit="10" stroke-linecap="round" stroke-linejoin="round"/>
<path d="M70.5275 19.8407C70.5275 19.8407 68.4976 23.9811 64.685 23.1265C64.685 23.1265 65.8024 29.0426 62.2529 29.2396C62.2529 29.2396 60.8145 32.3677 57.6884 29.0289C57.6884 29.0289 53.9668 27.5201 53.1288 32.7898C53.1288 32.7898 51.9871 39.2087 56.7561 38.5958L56.1932 47.684C56.1932 47.684 50.5896 51.6774 47.735 49.0343C44.8804 46.3912 45.4093 42.4333 45.4093 42.4333C45.4093 42.4333 37.3744 41.4215 37.1629 35.5542C36.9514 29.6869 41.0744 28.2067 41.0744 28.2067C41.0744 28.2067 35.2597 23.4493 38.0083 16.8942C40.757 10.3396 48.369 11.291 48.369 11.291C48.369 11.291 48.052 4.84187 54.5007 2.30469C60.9498 -0.232502 64.4388 3.99642 64.4388 3.99642C64.4388 3.99642 69.5136 -0.232502 75.1168 1.0363C80.7201 2.3051 80.67 6.85102 80.67 6.85102C80.67 6.85102 87.3807 6.42808 90.4463 12.5602C93.5124 18.6919 90.4463 21.758 90.4463 21.758C90.4463 21.758 92.018 26.0589 87.4171 27.4916C87.4171 27.4916 86.9105 25.0384 86.1392 23.5445C86.1392 23.5445 82.0398 24.0084 80.6737 20.3489C80.675 20.3489 74.7241 22.622 70.5275 19.8407Z" fill="black"/>
<path d="M53.2197 35.1308C53.2197 35.1308 51.1535 37.5203 52.7865 38.9285C54.419 40.3368 54.5337 37.1863 54.5337 37.1863" stroke="#FFCA36" stroke-width="0.2938" stroke-miterlimit="10" stroke-linecap="round" stroke-linejoin="round"/>
<path d="M113.579 125.205H77.1589V129.804H113.579V125.205Z" fill="black"/>
<path d="M61.862 115.562L59.4722 129.803C59.4722 129.803 71.522 131.629 75.6322 124.156C75.6322 124.156 82.2688 128.914 85.0658 126.517C85.0658 126.517 88.1836 128.115 90.9402 126.437C90.9402 126.437 93.5369 128.195 96.2537 126.118C96.2537 126.118 100.649 127.876 101.608 124.52C102.567 121.163 89.2211 115.809 84.2667 113.172C79.312 110.535 74.1176 112.772 71.4008 113.891C68.684 115.009 66.3086 115.635 61.862 115.562Z" fill="#94332A"/>
<path d="M65.5752 125.84C65.5752 125.84 69.3121 127.489 74.3674 123.368C74.3674 123.368 78.514 126.54 81.6885 127.042" stroke="black" stroke-width="0.2938" stroke-miterlimit="10" stroke-linecap="round" stroke-linejoin="round"/>
<path d="M85.0667 126.517C85.0667 126.517 87.7214 124.521 75.2473 118.807" stroke="black" stroke-width="0.2938" stroke-miterlimit="10" stroke-linecap="round" stroke-linejoin="round"/>
<path d="M90.9408 126.437C90.9408 126.437 94.4803 123.368 79.6433 116.938" stroke="black" stroke-width="0.2938" stroke-miterlimit="10" stroke-linecap="round" stroke-linejoin="round"/>
<path d="M96.2536 126.117C96.2536 126.117 99.5895 122.158 83.2693 115.674" stroke="black" stroke-width="0.2938" stroke-miterlimit="10" stroke-linecap="round" stroke-linejoin="round"/>
<path d="M61.8617 115.562L59.7322 128.254" stroke="black" stroke-width="0.2938" stroke-miterlimit="10" stroke-linecap="round" stroke-linejoin="round"/>
<path d="M164.704 87.8197H109.639C108.664 87.8197 107.796 88.4351 107.473 89.3542L94.3468 126.749C93.8229 128.241 94.9303 129.803 96.5119 129.803H151.577C152.551 129.803 153.419 129.188 153.742 128.269L166.869 90.8742C167.392 89.3823 166.285 87.8197 164.704 87.8197Z" fill="#41B870"/>
<path d="M109.639 87.8197C108.665 87.8197 107.797 88.4351 107.474 89.3542L99.5471 111.937" stroke="black" stroke-width="0.2938" stroke-miterlimit="10" stroke-linecap="round" stroke-linejoin="round"/>
<path d="M153.742 128.269L166.869 90.8742C167.393 89.3819 166.285 87.8197 164.704 87.8197H122.642" stroke="black" stroke-width="0.2938" stroke-miterlimit="10" stroke-linecap="round" stroke-linejoin="round"/>
<path d="M134.931 109.886C134.302 112.417 132.161 114.064 130.147 113.564C128.135 113.064 127.012 110.606 127.641 108.075C128.27 105.543 130.412 103.897 132.425 104.397C134.438 104.897 135.56 107.354 134.931 109.886Z" fill="#FFFBF8"/>
</svg>
