<svg width="33" height="32" viewBox="0 0 33 32" fill="none" xmlns="http://www.w3.org/2000/svg">
<path d="M12.6667 8C13.219 8 13.6667 8.44772 13.6667 9V10C13.6667 10.5523 13.219 11 12.6667 11C12.1145 11 11.6667 10.5523 11.6667 10V9C11.6667 8.44772 12.1145 8 12.6667 8Z" fill="#828387"/>
<path d="M20.6667 8C21.219 8 21.6667 8.44772 21.6667 9V10C21.6667 10.5523 21.219 11 20.6667 11C20.1145 11 19.6667 10.5523 19.6667 10V9C19.6667 8.44772 20.1145 8 20.6667 8Z" fill="#828387"/>
<path fill-rule="evenodd" clip-rule="evenodd" d="M10.6667 10C9.56218 10 8.66675 10.8954 8.66675 12V22C8.66675 23.1046 9.56218 24 10.6667 24H22.6667C23.7713 24 24.6667 23.1046 24.6667 22V12C24.6667 10.8954 23.7713 10 22.6667 10H10.6667ZM21.6667 12H11.6667C11.1145 12 10.6667 12.4477 10.6667 13C10.6667 13.5523 11.1145 14 11.6667 14H21.6667C22.219 14 22.6667 13.5523 22.6667 13C22.6667 12.4477 22.219 12 21.6667 12Z" fill="#828387"/>
</svg>
