<svg width="138" height="32" viewBox="0 0 138 32" fill="none" xmlns="http://www.w3.org/2000/svg">
<rect width="32" height="32" rx="4.87026" fill="#2C2E34"/>
<mask id="mask0_508_2955" style="mask-type:alpha" maskUnits="userSpaceOnUse" x="8" y="8" width="16" height="16">
<path d="M8 8H24V24H8V8Z" fill="white"/>
</mask>
<g mask="url(#mask0_508_2955)">
<path fill-rule="evenodd" clip-rule="evenodd" d="M13.3433 16.2924C13.3772 16.1862 13.3913 16.0768 13.3887 15.9688C13.3848 15.8906 13.3746 15.8125 13.3523 15.7343C13.2852 15.4914 13.1261 15.2745 12.8878 15.1377L9.49817 13.1896C9.01967 12.9155 8.40963 13.0785 8.13501 13.5541C7.85773 14.0289 8.02128 14.6354 8.49979 14.9102L10.3939 16.0006L8.49979 17.0879C8.02128 17.3632 7.85831 17.9698 8.13501 18.4466C8.40963 18.9209 9.01967 19.0831 9.49817 18.809L12.8878 16.8597C13.1166 16.7287 13.2718 16.5232 13.3433 16.2924ZM14.2632 18.118C14.0685 18.1014 13.866 18.1421 13.6838 18.2477L10.2916 20.1945C9.8144 20.4692 9.65143 21.0789 9.92686 21.5546C10.2036 22.029 10.813 22.1924 11.2896 21.9164L13.1901 20.8253V23.0056C13.1901 23.5549 13.6366 24 14.1891 24C14.7391 24 15.187 23.5549 15.187 23.0056V19.1079C15.187 18.5846 14.7794 18.1548 14.2632 18.118ZM17.7371 13.8819C17.9313 13.8979 18.1332 13.8566 18.3154 13.7523L21.7069 11.8036C22.1848 11.5288 22.347 10.9216 22.0722 10.4447C21.7969 9.96992 21.1869 9.80702 20.7096 10.0816L18.8104 11.174V8.99301C18.8104 8.4452 18.3639 8 17.8113 8C17.2587 8 16.8134 8.4452 16.8134 8.99301V12.8907C16.8134 13.4135 17.2198 13.8439 17.7371 13.8819ZM10.2916 11.8036L13.6838 13.7523C13.866 13.8566 14.0685 13.8979 14.2632 13.8819C14.7794 13.8439 15.187 13.4135 15.187 12.8907V8.99301C15.187 8.4452 14.7391 8 14.1891 8C13.6366 8 13.1901 8.4452 13.1901 8.99301V11.174L11.2896 10.0816C10.813 9.80702 10.2036 9.96992 9.92686 10.4447C9.65143 10.9216 9.8144 11.5288 10.2916 11.8036ZM16.6665 15.9924C16.6665 15.9358 16.6321 15.8569 16.5918 15.815L16.1836 15.4105C16.1434 15.3706 16.0641 15.3375 16.0071 15.3375H15.9913C15.9344 15.3375 15.8552 15.3706 15.8156 15.4105L15.4074 15.815C15.3665 15.8569 15.3351 15.9358 15.3351 15.9924V16.0083C15.3351 16.0642 15.3665 16.1424 15.4074 16.1831L15.8156 16.5888C15.8558 16.6288 15.9344 16.6618 15.9913 16.6618H16.0071C16.0641 16.6618 16.1434 16.6288 16.1836 16.5888L16.5918 16.1831C16.6321 16.1424 16.6665 16.0642 16.6665 16.0083V15.9924ZM17.7934 16.3815L16.3836 17.783C16.3432 17.8242 16.2653 17.8579 16.2066 17.8579H16.1043H15.896H15.792C15.735 17.8579 15.6559 17.8242 15.615 17.783L14.2058 16.3815C14.1655 16.342 14.1329 16.2626 14.1329 16.2066V16.103V15.8957V15.7934C14.1329 15.7361 14.1655 15.6566 14.2058 15.6166L15.615 14.2152C15.6559 14.1739 15.735 14.1414 15.792 14.1414H15.896H16.1043H16.2066C16.2641 14.1414 16.3432 14.1739 16.3836 14.2152L17.7934 15.6166C17.8336 15.6566 17.8662 15.7361 17.8662 15.7934V15.8957V16.103V16.2066C17.8662 16.2626 17.8336 16.342 17.7934 16.3815ZM21.7069 20.1945L18.3154 18.2477C18.1332 18.1421 17.9313 18.1014 17.7371 18.118C17.2198 18.1548 16.8134 18.5846 16.8134 19.1079V23.0056C16.8134 23.5549 17.2587 24 17.8113 24C18.3639 24 18.8104 23.5549 18.8104 23.0056V20.8253L20.7096 21.9164C21.1868 22.1924 21.7969 22.029 22.0722 21.5546C22.347 21.0789 22.1848 20.4692 21.7069 20.1945ZM23.5001 14.9102L21.6059 16.0006L23.5001 17.0879C23.9785 17.3632 24.1421 17.9698 23.8655 18.4466C23.5895 18.9209 22.9788 19.0831 22.5022 18.809L19.11 16.8597C18.8838 16.7287 18.7267 16.5232 18.657 16.2924C18.6239 16.1862 18.6085 16.0768 18.6123 15.9688C18.6143 15.8906 18.6257 15.8125 18.6474 15.7343C18.7153 15.4914 18.8743 15.2746 19.11 15.1377L22.5022 13.1896C22.9788 12.9155 23.5895 13.0785 23.8655 13.5541C24.1421 14.0289 23.9785 14.6354 23.5001 14.9102Z" fill="#09D91A"/>
</g>
<path d="M44.8071 21.5V11.3182H48.4363C49.2285 11.3182 49.8847 11.4624 50.4051 11.7507C50.9255 12.0391 51.3149 12.4335 51.5734 12.934C51.8319 13.4311 51.9612 13.9912 51.9612 14.6144C51.9612 15.2408 51.8303 15.8042 51.5684 16.3047C51.3099 16.8018 50.9188 17.1963 50.3951 17.4879C49.8748 17.7763 49.2202 17.9205 48.4314 17.9205H45.9356V16.6179H48.2922C48.7926 16.6179 49.1987 16.5317 49.5102 16.3594C49.8218 16.1837 50.0505 15.9451 50.1963 15.6435C50.3421 15.3419 50.415 14.9988 50.415 14.6144C50.415 14.2299 50.3421 13.8885 50.1963 13.5902C50.0505 13.2919 49.8201 13.0582 49.5052 12.8892C49.1937 12.7202 48.7827 12.6357 48.2723 12.6357H46.3433V21.5H44.8071ZM55.1293 11.3182V21.5H53.6428V11.3182H55.1293ZM59.3515 21.669C58.8676 21.669 58.4301 21.5795 58.039 21.4006C57.6479 21.2183 57.338 20.9548 57.1093 20.6101C56.8839 20.2654 56.7712 19.8428 56.7712 19.3423C56.7712 18.9115 56.8541 18.5568 57.0198 18.2784C57.1855 18 57.4092 17.7796 57.691 17.6172C57.9727 17.4548 58.2875 17.3322 58.6356 17.2493C58.9836 17.1664 59.3382 17.1035 59.6995 17.0604C60.1569 17.0073 60.5281 16.9643 60.8131 16.9311C61.0981 16.8947 61.3053 16.8367 61.4346 16.7571C61.5638 16.6776 61.6285 16.5483 61.6285 16.3693V16.3345C61.6285 15.9003 61.5058 15.5639 61.2606 15.3253C61.0186 15.0867 60.6573 14.9673 60.1767 14.9673C59.6763 14.9673 59.2819 15.0784 58.9935 15.3004C58.7085 15.5192 58.5113 15.7628 58.4019 16.0313L57.0049 15.7131C57.1706 15.2491 57.4125 14.8745 57.7307 14.5895C58.0522 14.3011 58.4218 14.0923 58.8394 13.9631C59.257 13.8305 59.6962 13.7642 60.1569 13.7642C60.4618 13.7642 60.7849 13.8007 61.1263 13.8736C61.471 13.9432 61.7925 14.0724 62.0908 14.2614C62.3924 14.4503 62.6393 14.7204 62.8316 15.0717C63.0238 15.4197 63.1199 15.8722 63.1199 16.429V21.5H61.6682V20.456H61.6086C61.5124 20.6482 61.3683 20.8371 61.176 21.0227C60.9838 21.2083 60.7369 21.3625 60.4353 21.4851C60.1337 21.6077 59.7724 21.669 59.3515 21.669ZM59.6746 20.4759C60.0856 20.4759 60.4369 20.3947 60.7286 20.2322C61.0236 20.0698 61.2473 19.8577 61.3998 19.5959C61.5555 19.3307 61.6334 19.0473 61.6334 18.7457V17.7614C61.5804 17.8144 61.4776 17.8641 61.3252 17.9105C61.176 17.9536 61.0053 17.9917 60.8131 18.0249C60.6209 18.0547 60.4336 18.0829 60.2513 18.1094C60.069 18.1326 59.9166 18.1525 59.7939 18.169C59.5056 18.2055 59.2421 18.2668 59.0035 18.353C58.7681 18.4392 58.5792 18.5634 58.4367 18.7259C58.2975 18.8849 58.2279 19.0971 58.2279 19.3622C58.2279 19.7301 58.3638 20.0085 58.6356 20.1974C58.9073 20.383 59.2537 20.4759 59.6746 20.4759ZM68.6645 13.8636V15.0568H64.4933V13.8636H68.6645ZM65.6119 12.0341H67.0984V19.2578C67.0984 19.5462 67.1415 19.7633 67.2277 19.9091C67.3139 20.0516 67.4249 20.1494 67.5608 20.2024C67.7 20.2521 67.8508 20.277 68.0132 20.277C68.1325 20.277 68.2369 20.2687 68.3264 20.2521C68.4159 20.2356 68.4855 20.2223 68.5352 20.2124L68.8037 21.4403C68.7175 21.4735 68.5949 21.5066 68.4358 21.5398C68.2767 21.5762 68.0778 21.5961 67.8392 21.5994C67.4481 21.6061 67.0835 21.5365 66.7455 21.3906C66.4074 21.2448 66.134 21.0194 65.9251 20.7145C65.7163 20.4096 65.6119 20.0268 65.6119 19.5661V12.0341ZM73.9431 13.8636V15.0568H69.6277V13.8636H73.9431ZM70.811 21.5V12.9787C70.811 12.5014 70.9154 12.1054 71.1242 11.7905C71.333 11.4723 71.6097 11.2353 71.9544 11.0796C72.2991 10.9205 72.6737 10.8409 73.078 10.8409C73.3763 10.8409 73.6315 10.8658 73.8436 10.9155C74.0558 10.9619 74.2132 11.005 74.3159 11.0448L73.9679 12.2479C73.8983 12.228 73.8088 12.2048 73.6995 12.1783C73.5901 12.1484 73.4575 12.1335 73.3017 12.1335C72.9405 12.1335 72.6819 12.223 72.5262 12.402C72.3737 12.581 72.2975 12.8395 72.2975 13.1776V21.5H70.811ZM78.3926 21.6541C77.6767 21.6541 77.052 21.4901 76.5184 21.1619C75.9847 20.8338 75.5704 20.3748 75.2755 19.7848C74.9805 19.1948 74.833 18.5054 74.833 17.7166C74.833 16.9245 74.9805 16.2318 75.2755 15.6385C75.5704 15.0452 75.9847 14.5845 76.5184 14.2564C77.052 13.9283 77.6767 13.7642 78.3926 13.7642C79.1086 13.7642 79.7333 13.9283 80.2669 14.2564C80.8006 14.5845 81.2149 15.0452 81.5098 15.6385C81.8048 16.2318 81.9523 16.9245 81.9523 17.7166C81.9523 18.5054 81.8048 19.1948 81.5098 19.7848C81.2149 20.3748 80.8006 20.8338 80.2669 21.1619C79.7333 21.4901 79.1086 21.6541 78.3926 21.6541ZM78.3976 20.4063C78.8616 20.4063 79.2461 20.2836 79.551 20.0384C79.8559 19.7931 80.0813 19.4666 80.2272 19.059C80.3763 18.6513 80.4509 18.2022 80.4509 17.7117C80.4509 17.2244 80.3763 16.777 80.2272 16.3693C80.0813 15.9583 79.8559 15.6286 79.551 15.38C79.2461 15.1314 78.8616 15.0071 78.3976 15.0071C77.9303 15.0071 77.5425 15.1314 77.2343 15.38C76.9293 15.6286 76.7023 15.9583 76.5532 16.3693C76.4073 16.777 76.3344 17.2244 76.3344 17.7117C76.3344 18.2022 76.4073 18.6513 76.5532 19.059C76.7023 19.4666 76.9293 19.7931 77.2343 20.0384C77.5425 20.2836 77.9303 20.4063 78.3976 20.4063ZM83.6116 21.5V13.8636H85.0484V15.0767H85.1279C85.2671 14.6657 85.5124 14.3426 85.8637 14.1072C86.2183 13.8686 86.6194 13.7493 87.0668 13.7493C87.1596 13.7493 87.269 13.7526 87.3949 13.7592C87.5242 13.7659 87.6253 13.7742 87.6982 13.7841V15.206C87.6386 15.1894 87.5325 15.1712 87.38 15.1513C87.2276 15.1281 87.0751 15.1165 86.9226 15.1165C86.5713 15.1165 86.2581 15.1911 85.983 15.3402C85.7112 15.486 85.4958 15.6899 85.3367 15.9517C85.1776 16.2102 85.0981 16.5052 85.0981 16.8367V21.5H83.6116ZM88.9846 21.5V13.8636H90.4115V15.1065H90.5059C90.665 14.6856 90.9252 14.3575 91.2865 14.1222C91.6477 13.8835 92.0803 13.7642 92.584 13.7642C93.0945 13.7642 93.522 13.8835 93.8667 14.1222C94.2147 14.3608 94.4716 14.6889 94.6373 15.1065H94.7169C94.8991 14.6989 95.1892 14.3741 95.5869 14.1321C95.9846 13.8868 96.4586 13.7642 97.0088 13.7642C97.7015 13.7642 98.2666 13.9813 98.7041 14.4155C99.1449 14.8497 99.3653 15.5043 99.3653 16.3793V21.5H97.8788V16.5185C97.8788 16.0014 97.7379 15.6269 97.4562 15.3949C97.1745 15.1629 96.8381 15.0469 96.447 15.0469C95.9631 15.0469 95.5869 15.196 95.3184 15.4943C95.05 15.7893 94.9157 16.1688 94.9157 16.6328V21.5H93.4342V16.424C93.4342 16.0097 93.3049 15.6766 93.0464 15.4247C92.7879 15.1728 92.4515 15.0469 92.0372 15.0469C91.7554 15.0469 91.4953 15.1215 91.2566 15.2706C91.0213 15.4164 90.8307 15.6203 90.6849 15.8821C90.5424 16.1439 90.4711 16.4472 90.4711 16.7919V21.5H88.9846ZM105.182 21.5V11.3182H106.718V20.1776H111.332V21.5H105.182ZM116.182 21.6541C115.466 21.6541 114.841 21.4901 114.307 21.1619C113.774 20.8338 113.359 20.3748 113.065 19.7848C112.77 19.1948 112.622 18.5054 112.622 17.7166C112.622 16.9245 112.77 16.2318 113.065 15.6385C113.359 15.0452 113.774 14.5845 114.307 14.2564C114.841 13.9283 115.466 13.7642 116.182 13.7642C116.898 13.7642 117.522 13.9283 118.056 14.2564C118.59 14.5845 119.004 15.0452 119.299 15.6385C119.594 16.2318 119.741 16.9245 119.741 17.7166C119.741 18.5054 119.594 19.1948 119.299 19.7848C119.004 20.3748 118.59 20.8338 118.056 21.1619C117.522 21.4901 116.898 21.6541 116.182 21.6541ZM116.187 20.4063C116.651 20.4063 117.035 20.2836 117.34 20.0384C117.645 19.7931 117.87 19.4666 118.016 19.059C118.165 18.6513 118.24 18.2022 118.24 17.7117C118.24 17.2244 118.165 16.777 118.016 16.3693C117.87 15.9583 117.645 15.6286 117.34 15.38C117.035 15.1314 116.651 15.0071 116.187 15.0071C115.719 15.0071 115.332 15.1314 115.023 15.38C114.718 15.6286 114.491 15.9583 114.342 16.3693C114.196 16.777 114.123 17.2244 114.123 17.7117C114.123 18.2022 114.196 18.6513 114.342 19.059C114.491 19.4666 114.718 19.7931 115.023 20.0384C115.332 20.2836 115.719 20.4063 116.187 20.4063ZM124.602 24.5227C123.996 24.5227 123.474 24.4432 123.036 24.2841C122.602 24.125 122.247 23.9145 121.972 23.6527C121.697 23.3909 121.492 23.1042 121.356 22.7926L122.634 22.2656C122.723 22.4115 122.842 22.5656 122.992 22.728C123.144 22.8937 123.349 23.0346 123.608 23.1506C123.87 23.2666 124.206 23.3246 124.617 23.3246C125.181 23.3246 125.646 23.187 126.014 22.9119C126.382 22.6402 126.566 22.206 126.566 21.6094V20.108H126.472C126.382 20.2704 126.253 20.451 126.084 20.6499C125.918 20.8487 125.689 21.0211 125.398 21.1669C125.106 21.3127 124.727 21.3857 124.259 21.3857C123.656 21.3857 123.112 21.2448 122.629 20.9631C122.148 20.678 121.767 20.2588 121.485 19.7053C121.207 19.1484 121.068 18.464 121.068 17.652C121.068 16.84 121.205 16.1439 121.48 15.5639C121.759 14.9839 122.14 14.5398 122.624 14.2315C123.108 13.92 123.656 13.7642 124.269 13.7642C124.743 13.7642 125.126 13.8438 125.418 14.0028C125.709 14.1586 125.936 14.3409 126.099 14.5497C126.264 14.7585 126.392 14.9425 126.482 15.1016H126.591V13.8636H128.048V21.669C128.048 22.3253 127.895 22.8639 127.59 23.2848C127.285 23.7057 126.873 24.0173 126.352 24.2195C125.835 24.4216 125.252 24.5227 124.602 24.5227ZM124.587 20.1527C125.015 20.1527 125.376 20.0533 125.671 19.8544C125.969 19.6522 126.195 19.3639 126.347 18.9893C126.503 18.6115 126.581 18.1591 126.581 17.6321C126.581 17.1184 126.505 16.666 126.352 16.2749C126.2 15.8838 125.976 15.5788 125.681 15.3601C125.386 15.138 125.022 15.027 124.587 15.027C124.14 15.027 123.767 15.143 123.469 15.375C123.17 15.6037 122.945 15.9152 122.793 16.3097C122.644 16.7041 122.569 17.1449 122.569 17.6321C122.569 18.1326 122.645 18.5717 122.798 18.9496C122.95 19.3274 123.175 19.6224 123.474 19.8345C123.775 20.0466 124.147 20.1527 124.587 20.1527ZM133.258 21.6541C132.542 21.6541 131.917 21.4901 131.384 21.1619C130.85 20.8338 130.436 20.3748 130.141 19.7848C129.846 19.1948 129.698 18.5054 129.698 17.7166C129.698 16.9245 129.846 16.2318 130.141 15.6385C130.436 15.0452 130.85 14.5845 131.384 14.2564C131.917 13.9283 132.542 13.7642 133.258 13.7642C133.974 13.7642 134.599 13.9283 135.132 14.2564C135.666 14.5845 136.08 15.0452 136.375 15.6385C136.67 16.2318 136.818 16.9245 136.818 17.7166C136.818 18.5054 136.67 19.1948 136.375 19.7848C136.08 20.3748 135.666 20.8338 135.132 21.1619C134.599 21.4901 133.974 21.6541 133.258 21.6541ZM133.263 20.4063C133.727 20.4063 134.111 20.2836 134.416 20.0384C134.721 19.7931 134.947 19.4666 135.092 19.059C135.242 18.6513 135.316 18.2022 135.316 17.7117C135.316 17.2244 135.242 16.777 135.092 16.3693C134.947 15.9583 134.721 15.6286 134.416 15.38C134.111 15.1314 133.727 15.0071 133.263 15.0071C132.795 15.0071 132.408 15.1314 132.099 15.38C131.795 15.6286 131.568 15.9583 131.418 16.3693C131.273 16.777 131.2 17.2244 131.2 17.7117C131.2 18.2022 131.273 18.6513 131.418 19.059C131.568 19.4666 131.795 19.7931 132.099 20.0384C132.408 20.2836 132.795 20.4063 133.263 20.4063Z" fill="#D0D5DD"/>
</svg>
