<svg width="207" height="48" viewBox="0 0 207 48" fill="none" xmlns="http://www.w3.org/2000/svg">
<rect width="48" height="48" rx="7.30539" fill="#2C2E34"/>
<mask id="mask0_10_3214" style="mask-type:alpha" maskUnits="userSpaceOnUse" x="12" y="12" width="25" height="24">
<path d="M12.0001 12H36.0001V36H12.0001V12Z" fill="white"/>
</mask>
<g mask="url(#mask0_10_3214)">
<path fill-rule="evenodd" clip-rule="evenodd" d="M20.0151 24.4386C20.0659 24.2794 20.0871 24.1153 20.0832 23.9532C20.0773 23.8359 20.0621 23.7187 20.0286 23.6014C19.9279 23.2371 19.6893 22.9117 19.3318 22.7065L14.2474 19.7844C13.5296 19.3732 12.6146 19.6177 12.2026 20.3311C11.7867 21.0434 12.032 21.9531 12.7498 22.3654L15.591 24.0009L12.7498 25.6319C12.032 26.0448 11.7876 26.9547 12.2026 27.67C12.6146 28.3814 13.5296 28.6247 14.2474 28.2135L19.3318 25.2895C19.6749 25.093 19.9078 24.7848 20.0151 24.4386ZM21.395 27.177C21.1028 27.1521 20.7991 27.2132 20.5259 27.3716L15.4376 30.2918C14.7217 30.7039 14.4773 31.6184 14.8904 32.3319C15.3055 33.0436 16.2197 33.2886 16.9345 32.8746L19.7852 31.2379V34.5084C19.7852 35.3324 20.4549 36 21.2838 36C22.1087 36 22.7806 35.3324 22.7806 34.5084V28.6618C22.7806 27.8769 22.1692 27.2322 21.395 27.177ZM26.6058 20.8229C26.8971 20.8469 27.2 20.7849 27.4732 20.6284L32.5604 17.7054C33.2773 17.2932 33.5206 16.3824 33.1085 15.667C32.6955 14.9549 31.7804 14.7105 31.0646 15.1224L28.2157 16.761V13.4895C28.2157 12.6678 27.546 12 26.7171 12C25.8882 12 25.2202 12.6678 25.2202 13.4895V19.3361C25.2202 20.1202 25.8298 20.7659 26.6058 20.8229ZM15.4376 17.7054L20.5259 20.6284C20.7991 20.7849 21.1028 20.8469 21.395 20.8229C22.1692 20.7659 22.7806 20.1202 22.7806 19.3361V13.4895C22.7806 12.6678 22.1087 12 21.2838 12C20.4549 12 19.7852 12.6678 19.7852 13.4895V16.761L16.9345 15.1224C16.2197 14.7105 15.3055 14.9549 14.8904 15.667C14.4773 16.3824 14.7217 17.2932 15.4376 17.7054ZM24.9999 23.9886C24.9999 23.9037 24.9482 23.7853 24.8879 23.7225L24.2755 23.1158C24.2152 23.0559 24.0963 23.0062 24.0108 23.0062H23.987C23.9017 23.0062 23.783 23.0559 23.7235 23.1158L23.1112 23.7225C23.0498 23.7853 23.0028 23.9037 23.0028 23.9886V24.0124C23.0028 24.0963 23.0498 24.2136 23.1112 24.2747L23.7235 24.8831C23.7839 24.9432 23.9017 24.9927 23.987 24.9927H24.0108C24.0963 24.9927 24.2152 24.9432 24.2755 24.8831L24.8879 24.2747C24.9482 24.2136 24.9999 24.0963 24.9999 24.0124V23.9886ZM26.6903 24.5722L24.5755 26.6745C24.515 26.7362 24.3981 26.7868 24.31 26.7868H24.1566H23.8442H23.6882C23.6027 26.7868 23.4839 26.7362 23.4225 26.6745L21.3088 24.5722C21.2483 24.513 21.1994 24.3939 21.1994 24.3099V24.1544V23.8435V23.6901C21.1994 23.6042 21.2483 23.4849 21.3088 23.4249L23.4225 21.3228C23.4839 21.2608 23.6027 21.2122 23.6882 21.2122H23.8442H24.1566H24.31C24.3962 21.2122 24.515 21.2608 24.5755 21.3228L26.6903 23.4249C26.7506 23.4849 26.7995 23.6042 26.7995 23.6901V23.8435V24.1544V24.3099C26.7995 24.3939 26.7506 24.513 26.6903 24.5722ZM32.5604 30.2918L27.4732 27.3716C27.2 27.2132 26.8971 27.1521 26.6058 27.177C25.8298 27.2322 25.2202 27.8769 25.2202 28.6618V34.5084C25.2202 35.3324 25.8882 36 26.7171 36C27.546 36 28.2157 35.3324 28.2157 34.5084V31.2379L31.0646 32.8746C31.7803 33.2886 32.6955 33.0436 33.1085 32.3319C33.5206 31.6184 33.2773 30.7039 32.5604 30.2918ZM35.2503 22.3654L32.4089 24.0009L35.2503 25.6319C35.9679 26.0448 36.2132 26.9547 35.7983 27.67C35.3843 28.3814 34.4684 28.6247 33.7534 28.2135L28.6651 25.2895C28.3258 25.093 28.0902 24.7848 27.9857 24.4386C27.9359 24.2794 27.9129 24.1153 27.9186 23.9532C27.9215 23.8359 27.9387 23.7187 27.9713 23.6014C28.0731 23.2371 28.3116 22.9119 28.6651 22.7065L33.7534 19.7844C34.4684 19.3732 35.3843 19.6177 35.7983 20.3311C36.2132 21.0434 35.9679 21.9531 35.2503 22.3654Z" fill="#09D91A"/>
</g>
<path d="M67.2109 31.5V16.2273H72.6548C73.843 16.2273 74.8273 16.4435 75.6079 16.8761C76.3884 17.3086 76.9726 17.9002 77.3604 18.6509C77.7482 19.3967 77.942 20.2369 77.942 21.1715C77.942 22.1112 77.7457 22.9563 77.3529 23.707C76.9651 24.4528 76.3785 25.0444 75.593 25.4819C74.8124 25.9144 73.8305 26.1307 72.6473 26.1307H68.9037V24.1768H72.4385C73.1892 24.1768 73.7982 24.0476 74.2656 23.7891C74.7329 23.5256 75.0759 23.1676 75.2947 22.7152C75.5134 22.2628 75.6228 21.7482 75.6228 21.1715C75.6228 20.5948 75.5134 20.0827 75.2947 19.6353C75.0759 19.1879 74.7304 18.8374 74.2581 18.5838C73.7908 18.3303 73.1743 18.2035 72.4087 18.2035H69.5152V31.5H67.2109ZM82.6943 16.2273V31.5H80.4645V16.2273H82.6943ZM89.0275 31.7536C88.3016 31.7536 87.6454 31.6193 87.0587 31.3509C86.4721 31.0774 86.0072 30.6822 85.6642 30.1651C85.3261 29.6481 85.1571 29.0142 85.1571 28.2635C85.1571 27.6172 85.2814 27.0852 85.5299 26.6676C85.7785 26.25 86.1141 25.9194 86.5367 25.6758C86.9593 25.4322 87.4316 25.2482 87.9536 25.1239C88.4756 24.9996 89.0076 24.9052 89.5495 24.8406C90.2355 24.761 90.7924 24.6964 91.2199 24.6467C91.6475 24.592 91.9582 24.505 92.1521 24.3857C92.346 24.2663 92.4429 24.0724 92.4429 23.804V23.7518C92.4429 23.1005 92.259 22.5959 91.8911 22.2379C91.5282 21.88 90.9863 21.701 90.2654 21.701C89.5147 21.701 88.923 21.8675 88.4905 22.2006C88.063 22.5288 87.7672 22.8942 87.6031 23.2969L85.5076 22.8196C85.7561 22.1236 86.1191 21.5618 86.5963 21.1342C87.0786 20.7017 87.6329 20.3885 88.2593 20.1946C88.8858 19.9957 89.5445 19.8963 90.2355 19.8963C90.6929 19.8963 91.1777 19.951 91.6897 20.0604C92.2068 20.1648 92.689 20.3587 93.1365 20.642C93.5889 20.9254 93.9593 21.3306 94.2476 21.8576C94.536 22.3796 94.6802 23.0582 94.6802 23.8935V31.5H92.5026V29.9339H92.4131C92.2689 30.2223 92.0527 30.5057 91.7643 30.7841C91.476 31.0625 91.1056 31.2937 90.6532 31.4776C90.2007 31.6616 89.6588 31.7536 89.0275 31.7536ZM89.5122 29.9638C90.1287 29.9638 90.6556 29.842 91.0931 29.5984C91.5356 29.3548 91.8712 29.0366 92.0999 28.6438C92.3336 28.2461 92.4504 27.821 92.4504 27.3686V25.892C92.3708 25.9716 92.2167 26.0462 91.988 26.1158C91.7643 26.1804 91.5083 26.2376 91.2199 26.2873C90.9316 26.332 90.6507 26.3743 90.3772 26.4141C90.1038 26.4489 89.8751 26.4787 89.6912 26.5036C89.2586 26.5582 88.8634 26.6502 88.5054 26.7795C88.1525 26.9087 87.8691 27.0952 87.6553 27.3388C87.4465 27.5774 87.3421 27.8956 87.3421 28.2933C87.3421 28.8452 87.5459 29.2628 87.9536 29.5462C88.3613 29.8246 88.8808 29.9638 89.5122 29.9638ZM102.997 20.0455V21.8352H96.7403V20.0455H102.997ZM98.4182 17.3011H100.648V28.1367C100.648 28.5692 100.713 28.8949 100.842 29.1136C100.971 29.3274 101.138 29.4741 101.341 29.5536C101.55 29.6282 101.776 29.6655 102.02 29.6655C102.199 29.6655 102.356 29.6531 102.49 29.6282C102.624 29.6033 102.729 29.5835 102.803 29.5685L103.206 31.4105C103.077 31.4602 102.893 31.5099 102.654 31.5597C102.415 31.6143 102.117 31.6442 101.759 31.6491C101.172 31.6591 100.626 31.5547 100.118 31.3359C99.6113 31.1172 99.2012 30.7791 98.888 30.3217C98.5748 29.8643 98.4182 29.2901 98.4182 28.5991V17.3011ZM110.915 20.0455V21.8352H104.442V20.0455H110.915ZM106.217 31.5V18.718C106.217 18.0021 106.373 17.408 106.687 16.9357C107 16.4585 107.415 16.103 107.932 15.8693C108.449 15.6307 109.011 15.5114 109.617 15.5114C110.065 15.5114 110.448 15.5487 110.766 15.6232C111.084 15.6928 111.32 15.7575 111.474 15.8171L110.952 17.6218C110.848 17.592 110.714 17.5572 110.549 17.5174C110.385 17.4727 110.187 17.4503 109.953 17.4503C109.411 17.4503 109.023 17.5845 108.79 17.853C108.561 18.1214 108.446 18.5092 108.446 19.0163V31.5H106.217ZM117.589 31.7312C116.515 31.7312 115.578 31.4851 114.778 30.9929C113.977 30.5007 113.356 29.8121 112.913 28.9272C112.471 28.0423 112.25 27.0082 112.25 25.8249C112.25 24.6367 112.471 23.5977 112.913 22.7077C113.356 21.8178 113.977 21.1268 114.778 20.6346C115.578 20.1424 116.515 19.8963 117.589 19.8963C118.663 19.8963 119.6 20.1424 120.401 20.6346C121.201 21.1268 121.823 21.8178 122.265 22.7077C122.707 23.5977 122.929 24.6367 122.929 25.8249C122.929 27.0082 122.707 28.0423 122.265 28.9272C121.823 29.8121 121.201 30.5007 120.401 30.9929C119.6 31.4851 118.663 31.7312 117.589 31.7312ZM117.597 29.8594C118.293 29.8594 118.869 29.6754 119.327 29.3075C119.784 28.9396 120.122 28.4499 120.341 27.8384C120.565 27.2269 120.677 26.5533 120.677 25.8175C120.677 25.0866 120.565 24.4155 120.341 23.804C120.122 23.1875 119.784 22.6928 119.327 22.32C118.869 21.9471 118.293 21.7607 117.597 21.7607C116.896 21.7607 116.314 21.9471 115.852 22.32C115.394 22.6928 115.054 23.1875 114.83 23.804C114.611 24.4155 114.502 25.0866 114.502 25.8175C114.502 26.5533 114.611 27.2269 114.83 27.8384C115.054 28.4499 115.394 28.9396 115.852 29.3075C116.314 29.6754 116.896 29.8594 117.597 29.8594ZM125.418 31.5V20.0455H127.573V21.8651H127.692C127.901 21.2486 128.269 20.7638 128.796 20.4109C129.328 20.0529 129.929 19.8739 130.601 19.8739C130.74 19.8739 130.904 19.8789 131.093 19.8889C131.287 19.8988 131.438 19.9112 131.548 19.9261V22.0589C131.458 22.0341 131.299 22.0067 131.07 21.9769C130.842 21.9421 130.613 21.9247 130.384 21.9247C129.857 21.9247 129.387 22.0366 128.975 22.2603C128.567 22.479 128.244 22.7848 128.005 23.1776C127.767 23.5653 127.647 24.0078 127.647 24.505V31.5H125.418ZM133.477 31.5V20.0455H135.617V21.9098H135.759C135.998 21.2784 136.388 20.7862 136.93 20.4332C137.472 20.0753 138.121 19.8963 138.876 19.8963C139.642 19.8963 140.283 20.0753 140.8 20.4332C141.322 20.7912 141.708 21.2834 141.956 21.9098H142.076C142.349 21.2983 142.784 20.8111 143.381 20.4482C143.977 20.0803 144.688 19.8963 145.513 19.8963C146.552 19.8963 147.4 20.2219 148.056 20.8732C148.718 21.5245 149.048 22.5064 149.048 23.8189V31.5H146.818V24.0277C146.818 23.2521 146.607 22.6903 146.185 22.3423C145.762 21.9943 145.257 21.8203 144.671 21.8203C143.945 21.8203 143.381 22.044 142.978 22.4915C142.575 22.9339 142.374 23.5032 142.374 24.1992V31.5H140.152V23.886C140.152 23.2646 139.958 22.7649 139.57 22.3871C139.182 22.0092 138.677 21.8203 138.056 21.8203C137.633 21.8203 137.243 21.9322 136.885 22.1559C136.532 22.3746 136.246 22.6804 136.028 23.0732C135.814 23.4659 135.707 23.9208 135.707 24.4379V31.5H133.477ZM157.773 31.5V16.2273H160.078V29.5163H166.998V31.5H157.773ZM174.273 31.7312C173.199 31.7312 172.262 31.4851 171.461 30.9929C170.661 30.5007 170.04 29.8121 169.597 28.9272C169.155 28.0423 168.933 27.0082 168.933 25.8249C168.933 24.6367 169.155 23.5977 169.597 22.7077C170.04 21.8178 170.661 21.1268 171.461 20.6346C172.262 20.1424 173.199 19.8963 174.273 19.8963C175.347 19.8963 176.284 20.1424 177.084 20.6346C177.885 21.1268 178.506 21.8178 178.949 22.7077C179.391 23.5977 179.612 24.6367 179.612 25.8249C179.612 27.0082 179.391 28.0423 178.949 28.9272C178.506 29.8121 177.885 30.5007 177.084 30.9929C176.284 31.4851 175.347 31.7312 174.273 31.7312ZM174.28 29.8594C174.976 29.8594 175.553 29.6754 176.01 29.3075C176.468 28.9396 176.806 28.4499 177.025 27.8384C177.248 27.2269 177.36 26.5533 177.36 25.8175C177.36 25.0866 177.248 24.4155 177.025 23.804C176.806 23.1875 176.468 22.6928 176.01 22.32C175.553 21.9471 174.976 21.7607 174.28 21.7607C173.579 21.7607 172.998 21.9471 172.535 22.32C172.078 22.6928 171.737 23.1875 171.514 23.804C171.295 24.4155 171.185 25.0866 171.185 25.8175C171.185 26.5533 171.295 27.2269 171.514 27.8384C171.737 28.4499 172.078 28.9396 172.535 29.3075C172.998 29.6754 173.579 29.8594 174.28 29.8594ZM186.904 36.0341C185.994 36.0341 185.211 35.9148 184.555 35.6761C183.903 35.4375 183.371 35.1218 182.959 34.729C182.546 34.3363 182.238 33.9062 182.034 33.4389L183.951 32.6484C184.085 32.8672 184.264 33.0984 184.488 33.342C184.716 33.5906 185.025 33.8018 185.412 33.9759C185.805 34.1499 186.31 34.2369 186.926 34.2369C187.771 34.2369 188.47 34.0305 189.022 33.6179C189.574 33.2102 189.849 32.5589 189.849 31.6641V29.4119H189.708C189.574 29.6555 189.38 29.9265 189.126 30.2248C188.877 30.5231 188.534 30.7816 188.097 31.0004C187.659 31.2191 187.09 31.3285 186.389 31.3285C185.484 31.3285 184.669 31.1172 183.943 30.6946C183.222 30.267 182.651 29.6381 182.228 28.8079C181.81 27.9727 181.602 26.946 181.602 25.728C181.602 24.5099 181.808 23.4659 182.221 22.5959C182.638 21.7259 183.21 21.0597 183.936 20.5973C184.662 20.13 185.484 19.8963 186.404 19.8963C187.115 19.8963 187.689 20.0156 188.127 20.2543C188.564 20.4879 188.905 20.7614 189.148 21.0746C189.397 21.3878 189.588 21.6637 189.723 21.9023H189.887V20.0455H192.072V31.7536C192.072 32.7379 191.843 33.5458 191.386 34.1772C190.928 34.8086 190.309 35.2759 189.529 35.5792C188.753 35.8825 187.878 36.0341 186.904 36.0341ZM186.881 29.479C187.523 29.479 188.065 29.3299 188.507 29.0316C188.955 28.7283 189.293 28.2958 189.521 27.734C189.755 27.1673 189.872 26.4886 189.872 25.6982C189.872 24.9276 189.757 24.2489 189.529 23.6623C189.3 23.0756 188.965 22.6183 188.522 22.2901C188.08 21.957 187.533 21.7905 186.881 21.7905C186.21 21.7905 185.651 21.9645 185.203 22.3125C184.756 22.6555 184.418 23.1229 184.189 23.7145C183.966 24.3061 183.854 24.9673 183.854 25.6982C183.854 26.4489 183.968 27.1076 184.197 27.6744C184.425 28.2411 184.764 28.6836 185.211 29.0018C185.663 29.32 186.22 29.479 186.881 29.479ZM199.887 31.7312C198.813 31.7312 197.876 31.4851 197.076 30.9929C196.275 30.5007 195.654 29.8121 195.211 28.9272C194.769 28.0423 194.548 27.0082 194.548 25.8249C194.548 24.6367 194.769 23.5977 195.211 22.7077C195.654 21.8178 196.275 21.1268 197.076 20.6346C197.876 20.1424 198.813 19.8963 199.887 19.8963C200.961 19.8963 201.898 20.1424 202.699 20.6346C203.499 21.1268 204.12 21.8178 204.563 22.7077C205.005 23.5977 205.227 24.6367 205.227 25.8249C205.227 27.0082 205.005 28.0423 204.563 28.9272C204.12 29.8121 203.499 30.5007 202.699 30.9929C201.898 31.4851 200.961 31.7312 199.887 31.7312ZM199.895 29.8594C200.591 29.8594 201.167 29.6754 201.625 29.3075C202.082 28.9396 202.42 28.4499 202.639 27.8384C202.863 27.2269 202.974 26.5533 202.974 25.8175C202.974 25.0866 202.863 24.4155 202.639 23.804C202.42 23.1875 202.082 22.6928 201.625 22.32C201.167 21.9471 200.591 21.7607 199.895 21.7607C199.194 21.7607 198.612 21.9471 198.15 22.32C197.692 22.6928 197.352 23.1875 197.128 23.804C196.909 24.4155 196.8 25.0866 196.8 25.8175C196.8 26.5533 196.909 27.2269 197.128 27.8384C197.352 28.4499 197.692 28.9396 198.15 29.3075C198.612 29.6754 199.194 29.8594 199.895 29.8594Z" fill="#D0D5DD"/>
</svg>
