<svg width="104" height="105" viewBox="0 0 104 105" fill="none" xmlns="http://www.w3.org/2000/svg">
<path d="M59.3731 100.437H87.954ZM32.7432 5.07922V80.6789ZM71.704 60.625H48.9932Z" fill="#6ECB90"/>
<path d="M59.3731 100.437H87.954M32.7432 5.07922V80.6789M71.704 60.625H48.9932" stroke="#6ECB90" stroke-width="7" stroke-miterlimit="10" stroke-linecap="round" stroke-linejoin="round"/>
<path d="M71.7051 42.7592H48.9943V25.7269L71.7051 25.7269V42.7592Z" stroke="#6ECB90" stroke-width="7" stroke-miterlimit="10" stroke-linecap="round" stroke-linejoin="round"/>
<path d="M82.5318 81.5961V100.438H25.3651C20.2183 100.438 16.0459 96.2651 16.0459 91.1184C16.0459 85.9716 20.2183 81.7992 25.3651 81.7992H80.2557C84.4976 81.7992 87.9379 78.3686 87.954 74.1306" stroke="#6ECB90" stroke-width="7" stroke-miterlimit="10" stroke-linecap="round" stroke-linejoin="round"/>
<path d="M87.9544 53.8181V12.2609C87.9544 8.00913 84.5076 4.5625 80.2559 4.5625H25.3701C20.2205 4.5625 16.0459 8.73489 16.0459 13.8817V91.1155" stroke="#6ECB90" stroke-width="7" stroke-miterlimit="10" stroke-linecap="round" stroke-linejoin="round"/>
</svg>
