<svg width="104" height="105" viewBox="0 0 104 105" fill="none" xmlns="http://www.w3.org/2000/svg">
<g clip-path="url(#clip0_508_2482)">
<path d="M59.0811 42.9881H82.6856C83.9893 42.9881 85.0459 41.9312 85.0459 40.6277C85.0459 39.3242 83.9891 38.2673 82.6856 38.2673H59.0811C57.7774 38.2673 56.7207 39.3242 56.7207 40.6277C56.7207 41.9312 57.7774 42.9881 59.0811 42.9881ZM59.0811 52.4297H68.5227C69.8265 52.4297 70.8831 51.3729 70.8831 50.0694C70.8831 48.7658 69.8263 47.709 68.5227 47.709H59.0811C57.7774 47.709 56.7207 48.7658 56.7207 50.0694C56.7207 51.3729 57.7774 52.4297 59.0811 52.4297ZM59.0811 33.5462H73.2437C74.5474 33.5462 75.604 32.4893 75.604 31.1858C75.604 29.8821 74.5472 28.8254 73.2437 28.8254H59.0811C57.7774 28.8254 56.7207 29.8823 56.7207 31.1858C56.7205 32.4893 57.7774 33.5462 59.0811 33.5462Z" fill="#4B53BA"/>
<path d="M99.209 5.22094H56.721C56.721 2.6137 54.6075 0.5 52.0002 0.5C49.393 0.5 47.2793 2.6137 47.2793 5.22094H4.79125C2.18401 5.22094 0.0703125 7.33464 0.0703125 9.94188V14.6628C0.0703125 17.2701 2.18401 19.3838 4.79125 19.3838V76.0344C4.79125 78.6416 6.90495 80.7553 9.51219 80.7553H49.6397V86.8689L36.1615 100.347C35.1714 101.195 35.0559 102.685 35.904 103.675C36.752 104.665 38.2421 104.781 39.2322 103.933C39.3245 103.854 39.4107 103.768 39.4896 103.675L52 91.1648L64.4867 103.651C65.3346 104.642 66.8247 104.757 67.8148 103.909C68.805 103.061 68.9204 101.571 68.0723 100.581C67.9932 100.488 67.9071 100.402 67.8148 100.323L54.3604 86.8689V80.7553H94.4879C97.0951 80.7553 99.2088 78.6416 99.2088 76.0344V19.3836C101.816 19.3836 103.93 17.2698 103.93 14.6626V9.94167C103.93 7.33444 101.816 5.22094 99.209 5.22094ZM94.4881 76.0342H9.51219V19.3836H94.4881V76.0342ZM99.209 14.6626H4.79125V9.94167H99.209V14.6626Z" fill="#4B53BA"/>
<path d="M59.0818 61.8714H82.6863C83.99 61.8714 85.0466 60.8145 85.0466 59.511C85.0466 58.2075 83.9898 57.1507 82.6863 57.1507H59.0818C57.7781 57.1507 56.7214 58.2075 56.7214 59.511C56.7214 60.8145 57.7781 61.8714 59.0818 61.8714ZM23.675 61.8714H42.5586C45.1658 61.8714 47.2795 59.7577 47.2795 57.1505V33.5462C47.2795 30.9389 45.1658 28.8252 42.5586 28.8252H23.675C21.0678 28.8252 18.9541 30.9389 18.9541 33.5462V57.1507C18.9541 59.7579 21.0678 61.8714 23.675 61.8714ZM23.675 33.5462H42.5586V57.1507H23.675V33.5462Z" fill="#4B53BA"/>
</g>
<defs>
<clipPath id="clip0_508_2482">
<rect width="104" height="104" fill="white" transform="translate(0 0.5)"/>
</clipPath>
</defs>
</svg>
