<svg width="105" height="105" viewBox="0 0 105 105" fill="none" xmlns="http://www.w3.org/2000/svg">
<g clip-path="url(#clip0_508_3412)">
<path d="M87.2535 33.4386C88.235 33.4386 89.0309 32.6428 89.0309 31.6612V12.3321C89.0309 9.392 86.6389 7 83.6988 7H19.0021C16.0619 7 13.6699 9.392 13.6699 12.3321V92.6698C13.6699 95.61 16.0619 98.002 19.0021 98.002H83.6988C86.6389 98.002 89.0309 95.61 89.0309 92.6698V79.5755C89.0309 78.5938 88.235 77.7981 87.2535 77.7981C86.2721 77.7981 85.4762 78.5938 85.4762 79.5755V92.6698C85.4762 93.6499 84.6788 94.4472 83.6988 94.4472H19.0021C18.022 94.4472 17.2247 93.6499 17.2247 92.6698V12.3321C17.2247 11.3521 18.022 10.5548 19.0021 10.5548H83.6988C84.6788 10.5548 85.4762 11.3521 85.4762 12.3321V31.6612C85.4762 32.6428 86.2721 33.4386 87.2535 33.4386Z" fill="#F5D90A"/>
<path d="M51.3473 16.598C42.3308 16.598 34.9953 23.9335 34.9953 32.9499C34.9953 37.6275 36.97 41.852 40.1288 44.8351C40.188 44.8984 40.2509 44.9583 40.3197 45.0129C43.2294 47.6752 47.1018 49.3017 51.3471 49.3017C55.5924 49.3017 59.4647 47.675 62.3745 45.0129C62.4424 44.9584 62.5062 44.899 62.5654 44.8351C65.7245 41.852 67.6992 37.6275 67.6992 32.9499C67.6992 23.9335 60.3637 16.598 51.3473 16.598ZM51.3473 45.7471C48.445 45.7471 45.7665 44.7745 43.6172 43.14C45.1794 40.37 48.0945 38.6376 51.3473 38.6376C54.6 38.6376 57.5151 40.37 59.0773 43.14C56.9279 44.7745 54.2495 45.7471 51.3473 45.7471ZM48.5034 32.239V31.0837C48.5034 29.5157 49.7793 28.2399 51.3473 28.2399C52.9153 28.2399 54.1911 29.5157 54.1911 31.0837V32.239C54.1911 33.807 52.9153 35.0828 51.3473 35.0828C49.7793 35.0828 48.5034 33.807 48.5034 32.239ZM61.6454 40.5363C60.3482 38.609 58.5329 37.0874 56.4087 36.1467C57.2459 35.0648 57.7458 33.7096 57.7458 32.239V31.0837C57.7458 27.5554 54.8755 24.6851 51.3473 24.6851C47.819 24.6851 44.9487 27.5554 44.9487 31.0837V32.239C44.9487 33.7096 45.4487 35.0648 46.2858 36.1467C44.1616 37.0874 42.3463 38.609 41.0491 40.5363C39.4799 38.4118 38.5501 35.7879 38.5501 32.9499C38.5501 25.8936 44.2909 20.1528 51.3473 20.1528C58.4036 20.1528 64.1444 25.8936 64.1444 32.9499C64.1444 35.7879 63.2147 38.4118 61.6454 40.5363ZM60.9451 84.8495H51.3473C50.3658 84.8495 49.5699 85.6452 49.5699 86.6269C49.5699 87.6085 50.3658 88.4043 51.3473 88.4043H60.9451C61.9266 88.4043 62.7225 87.6085 62.7225 86.6269C62.7225 85.6452 61.9266 84.8495 60.9451 84.8495ZM60.9451 74.8962H35.7063C34.7248 74.8962 33.9289 75.6919 33.9289 76.6735C33.9289 77.6552 34.7248 78.4509 35.7063 78.4509H60.9451C61.9266 78.4509 62.7225 77.6552 62.7225 76.6735C62.7225 75.6919 61.9266 74.8962 60.9451 74.8962ZM60.9451 64.9428H35.7063C34.7248 64.9428 33.9289 65.7385 33.9289 66.7202C33.9289 67.7018 34.7248 68.4976 35.7063 68.4976H60.9451C61.9266 68.4976 62.7225 67.7018 62.7225 66.7202C62.7225 65.7385 61.9266 64.9428 60.9451 64.9428ZM29.3715 55.5102C29.037 55.1778 28.5849 54.9906 28.1133 54.9895C27.6457 54.9895 27.1871 55.1797 26.8567 55.5102C26.5261 55.8408 26.3359 56.2994 26.3359 56.7669C26.3359 57.2343 26.5259 57.6929 26.8567 58.0235C27.191 58.3553 27.6423 58.5424 28.1133 58.5442C28.5825 58.5442 29.0393 58.3541 29.3715 58.0235C29.7021 57.6929 29.8925 57.2343 29.8925 56.7669C29.8925 56.2994 29.7023 55.8408 29.3715 55.5102ZM29.3715 65.4636C29.0368 65.1314 28.5849 64.9443 28.1133 64.9428C27.6457 64.9428 27.1891 65.133 26.8567 65.4636C26.5261 65.7942 26.3359 66.2527 26.3359 66.7202C26.3359 67.1876 26.5259 67.6462 26.8567 67.9768C27.191 68.3086 27.6423 68.4957 28.1133 68.4976C28.5825 68.4976 29.0393 68.3074 29.3715 67.9768C29.7021 67.6462 29.8925 67.1876 29.8925 66.7202C29.8925 66.2527 29.7023 65.7942 29.3715 65.4636ZM29.3715 75.4169C29.0368 75.0847 28.5849 74.8977 28.1133 74.8962C27.6457 74.8962 27.1891 75.0863 26.8567 75.4169C26.5261 75.7475 26.3359 76.2061 26.3359 76.6735C26.3359 77.141 26.5259 77.5996 26.8567 77.9301C27.1907 78.2623 27.6422 78.4494 28.1133 78.4509C28.5825 78.4509 29.0411 78.2607 29.3715 77.9301C29.7021 77.5996 29.8925 77.141 29.8925 76.6735C29.8925 76.2061 29.7023 75.7475 29.3715 75.4169ZM60.9451 54.9895H35.7063C34.7248 54.9895 33.9289 55.7852 33.9289 56.7669C33.9289 57.7485 34.7248 58.5442 35.7063 58.5442H60.9451C61.9266 58.5442 62.7225 57.7485 62.7225 56.7669C62.7225 55.7852 61.9266 54.9895 60.9451 54.9895ZM100.935 30.163C99.2086 29.1661 97.197 28.9012 95.2706 29.4172C93.3447 29.9334 91.7347 31.1686 90.738 32.8954L68.371 71.6357C68.2485 71.8481 68.1712 72.0836 68.1439 72.3273L66.5695 86.4298C66.5418 86.6782 66.5669 86.9297 66.643 87.1679C66.7192 87.406 66.8447 87.6254 67.0113 87.8117C67.178 87.9981 67.3821 88.1472 67.6103 88.2493C67.8385 88.3514 68.0857 88.4043 68.3357 88.4044C68.715 88.4046 69.0844 88.2833 69.3898 88.0582L80.8155 79.6434C81.013 79.498 81.1782 79.3133 81.3008 79.1009L103.668 40.3606C105.726 36.7958 104.5 32.2212 100.935 30.163ZM70.5529 82.7867L71.3752 75.4226L76.5193 78.3926L70.5529 82.7867ZM79.111 75.7841L72.3383 71.8739L90.2872 40.7857L97.0599 44.6959L79.111 75.7841ZM100.589 38.583L98.8371 41.6175L92.0644 37.7073L93.8164 34.6728C94.072 34.2272 94.4135 33.8367 94.821 33.524C95.2285 33.2113 95.6941 32.9825 96.1906 32.8509C96.6865 32.7166 97.204 32.6819 97.7133 32.749C98.2227 32.816 98.7136 32.9835 99.1578 33.2416C99.6033 33.4972 99.9938 33.8387 100.306 34.2462C100.619 34.6538 100.848 35.1193 100.98 35.6158C101.114 36.1117 101.149 36.6292 101.082 37.1385C101.015 37.6478 100.847 38.1388 100.589 38.583Z" fill="#F5D90A"/>
</g>
<defs>
<clipPath id="clip0_508_3412">
<rect width="104" height="104" fill="white" transform="translate(0.666992 0.5)"/>
</clipPath>
</defs>
</svg>
